<svg width="1600" height="1200" viewBox="0 0 1600 1200" fill="none" xmlns="http://www.w3.org/2000/svg">
  <defs>
    <linearGradient id="bg" x1="40" y1="40" x2="1510" y2="1160" gradientUnits="userSpaceOnUse">
      <stop stop-color="#0F172A"/>
      <stop offset="0.45" stop-color="#155E75"/>
      <stop offset="1" stop-color="#1E3A2B"/>
    </linearGradient>
    <linearGradient id="glass" x1="0" y1="0" x2="1" y2="1">
      <stop stop-color="#FFFFFF" stop-opacity="0.28"/>
      <stop offset="1" stop-color="#FFFFFF" stop-opacity="0.08"/>
    </linearGradient>
    <linearGradient id="sea" x1="800" y1="560" x2="800" y2="935" gradientUnits="userSpaceOnUse">
      <stop stop-color="#DFF4FF"/>
      <stop offset="1" stop-color="#8AB7CC"/>
    </linearGradient>
    <linearGradient id="dock" x1="0" y1="0" x2="1" y2="1">
      <stop stop-color="#3B5563"/>
      <stop offset="1" stop-color="#182731"/>
    </linearGradient>
    <filter id="blur1" x="960" y="116" width="551" height="320" filterUnits="userSpaceOnUse" color-interpolation-filters="sRGB">
      <feGaussianBlur stdDeviation="30"/>
    </filter>
    <filter id="shadow" x="0" y="0" width="1600" height="1200" filterUnits="userSpaceOnUse" color-interpolation-filters="sRGB">
      <feDropShadow dx="0" dy="22" stdDeviation="28" flood-color="#020617" flood-opacity="0.2"/>
    </filter>
  </defs>

  <rect width="1600" height="1200" fill="url(#bg)"/>
  <rect width="1600" height="1200" fill="url(#glass)" opacity="0.25"/>

  <g opacity="0.14">
    <path d="M0 145H1600" stroke="white" stroke-width="8"/>
    <path d="M0 300H1600" stroke="white" stroke-width="8"/>
    <path d="M0 455H1600" stroke="white" stroke-width="8"/>
    <path d="M0 610H1600" stroke="white" stroke-width="8"/>
    <path d="M0 765H1600" stroke="white" stroke-width="8"/>
    <path d="M0 920H1600" stroke="white" stroke-width="8"/>
    <path d="M145 0V1200" stroke="#FBBF24" stroke-width="6"/>
    <path d="M325 0V1200" stroke="#FBBF24" stroke-width="6"/>
    <path d="M505 0V1200" stroke="#FBBF24" stroke-width="6"/>
    <path d="M685 0V1200" stroke="#FBBF24" stroke-width="6"/>
    <path d="M865 0V1200" stroke="#FBBF24" stroke-width="6"/>
    <path d="M1045 0V1200" stroke="#FBBF24" stroke-width="6"/>
    <path d="M1225 0V1200" stroke="#FBBF24" stroke-width="6"/>
    <path d="M1405 0V1200" stroke="#FBBF24" stroke-width="6"/>
  </g>

  <ellipse cx="1278" cy="240" rx="245" ry="104" fill="#F8FAFC" fill-opacity="0.17" filter="url(#blur1)"/>

  <rect x="0" y="800" width="1600" height="400" fill="#273B46"/>
  <rect x="0" y="620" width="1600" height="210" fill="url(#sea)"/>

  <g opacity="0.26">
    <path d="M820 192L855 210L900 198L938 224L978 210L1018 240L1058 226L1100 254L1142 244L1188 266L1232 256L1276 280L1324 270L1364 296L1406 286" stroke="white" stroke-width="4" stroke-linecap="round"/>
    <circle cx="860" cy="212" r="6" fill="white"/>
    <circle cx="940" cy="224" r="6" fill="white"/>
    <circle cx="1020" cy="240" r="6" fill="white"/>
    <circle cx="1102" cy="254" r="6" fill="white"/>
    <circle cx="1190" cy="266" r="6" fill="white"/>
    <circle cx="1278" cy="280" r="6" fill="white"/>
    <circle cx="1364" cy="296" r="6" fill="white"/>
  </g>

  <g opacity="0.18" stroke="#E0F2FE" stroke-width="3">
    <path d="M872 322C920 250 1004 236 1078 238C1164 240 1230 268 1300 286"/>
    <path d="M896 352C950 314 1016 306 1094 310C1174 314 1248 336 1352 364"/>
    <path d="M940 388C1012 366 1090 370 1160 386C1234 402 1298 426 1384 454"/>
  </g>

  <g filter="url(#shadow)">
    <rect x="64" y="120" width="440" height="520" rx="22" fill="#10222D" fill-opacity="0.65"/>
    <rect x="86" y="150" width="396" height="146" rx="16" fill="#ECFEFF" fill-opacity="0.1" stroke="#CFFAFE" stroke-opacity="0.35"/>
    <rect x="96" y="320" width="380" height="26" rx="8" fill="#F8FAFC" fill-opacity="0.06"/>
    <rect x="96" y="360" width="120" height="182" rx="12" fill="#F8FAFC" fill-opacity="0.06"/>
    <rect x="230" y="360" width="120" height="182" rx="12" fill="#F8FAFC" fill-opacity="0.06"/>
    <rect x="364" y="360" width="112" height="182" rx="12" fill="#F8FAFC" fill-opacity="0.06"/>

    <g opacity="0.94">
      <rect x="98" y="552" width="98" height="54" rx="8" fill="#9CA3AF"/>
      <rect x="204" y="552" width="98" height="54" rx="8" fill="#A16207"/>
      <rect x="310" y="552" width="98" height="54" rx="8" fill="#64748B"/>
      <rect x="416" y="552" width="58" height="54" rx="8" fill="#1D4ED8"/>
    </g>
  </g>

  <g opacity="0.88">
    <rect x="104" y="372" width="102" height="154" rx="10" fill="#243A48"/>
    <rect x="236" y="372" width="102" height="154" rx="10" fill="#243A48"/>
    <rect x="368" y="372" width="96" height="154" rx="10" fill="#243A48"/>

    <path d="M120 502H192" stroke="#E2E8F0" stroke-width="16" stroke-linecap="round"/>
    <path d="M252 408H322" stroke="#C084FC" stroke-width="16" stroke-linecap="round"/>
    <path d="M382 430H448" stroke="#34D399" stroke-width="16" stroke-linecap="round"/>
    <path d="M118 418H192" stroke="#93C5FD" stroke-width="16" stroke-linecap="round"/>
    <path d="M250 466H324" stroke="#FBBF24" stroke-width="16" stroke-linecap="round"/>
    <path d="M382 488H448" stroke="#60A5FA" stroke-width="16" stroke-linecap="round"/>
  </g>

  <g opacity="0.92">
    <rect x="548" y="934" width="506" height="152" rx="24" fill="#0F172A"/>
    <rect x="586" y="958" width="432" height="94" rx="16" fill="#F8FAFC"/>
    <rect x="618" y="986" width="84" height="52" rx="8" fill="#DBEAFE"/>
    <rect x="724" y="986" width="84" height="52" rx="8" fill="#FEF3C7"/>
    <rect x="830" y="986" width="84" height="52" rx="8" fill="#E0F2FE"/>
    <rect x="936" y="986" width="50" height="52" rx="8" fill="#DCFCE7"/>
    <rect x="610" y="970" width="94" height="10" rx="5" fill="#94A3B8"/>
    <rect x="716" y="970" width="86" height="10" rx="5" fill="#94A3B8"/>
    <rect x="822" y="970" width="88" height="10" rx="5" fill="#94A3B8"/>
  </g>

  <g opacity="0.95">
    <path d="M778 622L1048 622L1108 682L838 682L778 622Z" fill="#E85D3A"/>
    <rect x="748" y="682" width="402" height="92" rx="20" fill="#1E40AF"/>
    <rect x="810" y="672" width="54" height="10" rx="4" fill="#CBD5E1"/>
    <rect x="878" y="672" width="54" height="10" rx="4" fill="#CBD5E1"/>
    <rect x="946" y="672" width="54" height="10" rx="4" fill="#CBD5E1"/>
    <rect x="1014" y="672" width="54" height="10" rx="4" fill="#CBD5E1"/>
    <rect x="1082" y="672" width="28" height="10" rx="4" fill="#CBD5E1"/>
  </g>

  <g opacity="0.96">
    <rect x="1160" y="700" width="108" height="78" rx="10" fill="#2563EB"/>
    <rect x="1278" y="700" width="122" height="78" rx="10" fill="#F97316"/>
    <rect x="1410" y="700" width="118" height="78" rx="10" fill="#0F766E"/>
    <rect x="1190" y="792" width="118" height="82" rx="10" fill="#64748B"/>
    <rect x="1322" y="792" width="110" height="82" rx="10" fill="#B45309"/>
    <rect x="1446" y="792" width="82" height="82" rx="10" fill="#334155"/>
  </g>

  <g opacity="0.92">
    <rect x="1130" y="950" width="168" height="38" rx="18" fill="#334155"/>
    <rect x="1160" y="916" width="184" height="52" rx="24" fill="#475569"/>
    <rect x="1370" y="940" width="170" height="42" rx="20" fill="#0F766E"/>
    <rect x="1398" y="906" width="182" height="58" rx="26" fill="#0EA5E9"/>
    <rect x="1298" y="974" width="142" height="22" rx="10" fill="#FBBF24"/>
  </g>

  <g opacity="0.86">
    <rect x="1118" y="872" width="66" height="66" rx="12" fill="#A16207"/>
    <rect x="1188" y="872" width="66" height="66" rx="12" fill="#F8FAFC"/>
    <rect x="1258" y="872" width="66" height="66" rx="12" fill="#475569"/>
  </g>

  <circle cx="702" cy="908" r="54" fill="#1E3A8A" fill-opacity="0.85"/>
  <ellipse cx="702" cy="908" rx="54" ry="20" stroke="#FDE68A" stroke-width="3"/>
  <path d="M648 908H756" stroke="#FDE68A" stroke-width="3"/>
  <path d="M702 854V962" stroke="#FDE68A" stroke-width="3"/>
  <path d="M664 872C678 884 724 884 740 872" stroke="#FDE68A" stroke-width="3"/>
  <path d="M664 944C678 932 724 932 740 944" stroke="#FDE68A" stroke-width="3"/>

  <rect x="0" y="1108" width="1600" height="92" fill="#0F172A" fill-opacity="0.4"/>
</svg>
