<svg width="256" height="256" viewBox="0 0 256 256" fill="none" xmlns="http://www.w3.org/2000/svg">
  <defs>
    <linearGradient id="kgt-bg" x1="32" y1="24" x2="220" y2="232" gradientUnits="userSpaceOnUse">
      <stop stop-color="#F97316"/>
      <stop offset="1" stop-color="#DC2626"/>
    </linearGradient>
    <linearGradient id="kgt-globe" x1="74" y1="70" x2="182" y2="186" gradientUnits="userSpaceOnUse">
      <stop stop-color="#FFF7ED"/>
      <stop offset="1" stop-color="#FFFFFF"/>
    </linearGradient>
  </defs>
  <rect x="20" y="20" width="216" height="216" rx="64" fill="url(#kgt-bg)"/>
  <circle cx="128" cy="128" r="58" fill="url(#kgt-globe)"/>
  <path d="M128 70C111 86 101 106 101 128C101 150 111 170 128 186C145 170 155 150 155 128C155 106 145 86 128 70Z" fill="#FDBA74" fill-opacity="0.65"/>
  <path d="M70 128H186" stroke="#EA580C" stroke-width="10" stroke-linecap="round"/>
  <path d="M128 70V186" stroke="#EA580C" stroke-width="10" stroke-linecap="round"/>
  <path d="M87 96C99 103 113 106 128 106C143 106 157 103 169 96" stroke="#EA580C" stroke-width="10" stroke-linecap="round"/>
  <path d="M87 160C99 153 113 150 128 150C143 150 157 153 169 160" stroke="#EA580C" stroke-width="10" stroke-linecap="round"/>
  <path d="M176 62L183.64 77.48L201 80L188.5 92.12L191.45 109.2L176 101.08L160.55 109.2L163.5 92.12L151 80L168.36 77.48L176 62Z" fill="#FDE68A"/>
</svg>
